<svg xmlns="http://www.w3.org/2000/svg" viewBox="0 0 224 213">
  <ellipse fill="#fff" cx="97.667" cy="91.346" rx="91.333" ry="89.346"/>
  <circle fill="#FF8F00" cx="9.167" cy="37.5" r="9.167"/>
  <circle fill="#FF8F00" cx="13.167" cy="11.5" r="8.167"/>
  <circle fill="#FF8F00" cx="40.75" cy="50.916" r="15.75"/>
  <path fill="#FFA300" d="M102,23c-15.7,0-30.248,4.903-42.224,13.242C63.2,40.296,65.25,45.421,65.25,51c0,13.117-11.305,23.75-25.25,23.75c-2.856,0-5.599-.453-8.159-1.275C29.363,80.868,28,88.772,28,97c0,40.869,33.131,74,74,74s74-33.131,74-74S142.869,23,102,23z"/>
  <path fill="#fff" d="M56,124l34-28l4,5l-35,28L56,124z"/>
  <path fill="#fff" d="M106,99l24,28l-5,3l-22-27L106,99z"/>
  <path fill="#fff" d="M96,82l12-39l4,2l-11,39L96,82z"/>
  <path fill="#fff" d="M156,85l-20,44l4,2l20-45L156,85z"/>
  <path fill="#fff" d="M153,72l-36-22l-2,4l35,22L153,72z"/>
  <path fill="#fff" d="M90,83L56,58l-3,4l33,24L90,83z"/>
  <path fill="#fff" d="M106,90l44-10v5l-44,10V90z"/>
  <path fill="#fff" d="M87.72,79.005l18.681.433c2.866.066,5.135,2.438,5.067,5.298l-.438,18.64c-.066,2.859-2.444,5.124-5.311,5.058l-18.681-.434c-2.866-.066-5.135-2.438-5.067-5.298l.438-18.64C82.476,81.203,84.854,78.939,87.72,79.005z"/>
  <circle fill="#fff" cx="53.5" cy="129.834" r="12.5"/>
  <circle fill="#fff" cx="110.5" cy="45.834" r="12.5"/>
  <circle fill="#fff" cx="155.833" cy="80.5" r="12.5"/>
  <circle fill="#fff" cx="131.833" cy="132.501" r="12.5"/>
  <path fill="#3D3D3D" d="M219.674,199.824l-42.065-42.065C190.988,141.132,199,120.003,199,97c0-53.572-43.429-97-97-97C76.821,0,53.884,9.595,36.642,25.327c1.311-.212,2.654-.327,4.025-.327,6.546,0,12.502,2.519,16.959,6.637C70.275,23.033,85.548,18,102,18c43.631,0,79,35.37,79,79c0,43.631-35.369,79-79,79s-79-35.369-79-79c0-9.056,1.543-17.746,4.349-25.847C20.996,67.145,16.572,60.36,15.792,52.5C8.897,65.828,5,80.958,5,97c0,53.572,43.429,97,97,97c19.921,0,38.438-6.009,53.842-16.309l42.982,42.982c3.905,3.904,11.516,2.625,16.999-2.857l.993-.993C222.299,211.34,223.578,203.729,219.674,199.824z"/>
</svg>
